<?xml version="1.0" standalone="no"?>
<!DOCTYPE svg PUBLIC "-//W3C//DTD SVG 20010904//EN"
 "http://www.w3.org/TR/2001/REC-SVG-20010904/DTD/svg10.dtd">
<svg version="1.0" xmlns="http://www.w3.org/2000/svg"
 width="756.000000pt" height="900.000000pt" viewBox="0 0 756.000000 900.000000"
 preserveAspectRatio="xMidYMid meet">

<g transform="translate(0.000000,900.000000) scale(0.100000,-0.100000)"
fill="#000000" stroke="none">
<path d="M3446 7479 c-22 -5 -48 -17 -58 -27 -10 -9 -27 -26 -38 -37 -19 -18
-22 -18 -49 -2 -42 24 -59 22 -63 -10 -3 -24 -12 -31 -70 -53 -38 -13 -68 -28
-68 -33 0 -5 -7 -15 -15 -23 -13 -14 -17 -13 -37 0 -33 23 -36 20 -25 -24 6
-22 8 -42 5 -46 -4 -3 -41 -6 -83 -6 -107 1 -127 22 -82 85 31 45 35 47 73 31
47 -20 54 -18 54 15 0 25 6 32 34 42 36 13 41 45 5 34 -11 -4 -19 -2 -19 5 0
31 -144 -42 -210 -108 -41 -41 -47 -44 -85 -39 -45 6 -75 -9 -75 -40 0 -27
-120 -145 -142 -139 -21 5 -22 -2 -7 -41 9 -24 7 -31 -14 -49 -40 -34 -107
-15 -107 31 0 12 -7 28 -15 35 -24 20 -53 2 -70 -45 -10 -24 -30 -55 -45 -70
-23 -22 -28 -34 -23 -55 3 -15 0 -31 -6 -34 -6 -4 -11 -19 -11 -33 0 -33 -29
-131 -41 -138 -5 -4 -33 -7 -62 -8 -40 -2 -61 -9 -84 -27 -17 -14 -44 -33 -61
-42 -42 -22 -62 -75 -62 -158 0 -46 -4 -71 -14 -79 -14 -12 -17 -38 -31 -261
-4 -74 -2 -111 6 -128 10 -18 10 -31 -4 -70 -22 -61 -22 -144 2 -218 10 -32
24 -88 30 -124 18 -97 60 -220 124 -360 112 -246 128 -300 88 -300 -10 0 -21
-9 -24 -20 -3 -11 -1 -20 4 -20 5 0 9 -7 9 -15 0 -21 -16 -19 -25 3 -6 15 -8
15 -25 -5 -35 -43 -43 -306 -12 -398 39 -117 110 -311 128 -352 18 -42 36 -54
49 -33 10 16 26 0 20 -19 -26 -84 16 -215 79 -245 20 -9 49 -16 64 -14 22 2
28 9 30 33 2 17 0 26 -4 22 -10 -10 -34 63 -41 123 -2 25 -16 67 -29 94 -13
28 -24 56 -24 63 0 7 -11 20 -25 29 -23 15 -38 43 -16 30 20 -13 26 48 13 137
-7 51 -16 115 -19 142 -3 28 -10 56 -15 63 -14 17 -37 181 -45 321 -5 99 -3
119 12 148 10 18 22 33 26 33 4 0 5 -27 2 -60 -6 -59 6 -108 33 -140 8 -10 14
-53 16 -118 1 -57 6 -106 10 -108 4 -3 5 -11 2 -19 -4 -9 1 -18 11 -21 9 -4
14 -12 11 -19 -2 -6 0 -18 5 -26 6 -11 9 -8 9 9 0 19 4 22 20 17 11 -4 20 -2
20 4 0 6 9 11 20 11 11 0 20 -5 20 -11 0 -7 10 -9 25 -7 14 3 28 1 31 -3 3 -5
-9 -9 -25 -9 -21 0 -31 -5 -31 -15 0 -11 12 -15 43 -16 23 -1 33 -4 22 -6 -19
-5 -35 -20 -35 -35 0 -14 102 -78 125 -78 18 0 25 -5 25 -20 0 -11 4 -20 10
-20 5 0 7 -6 4 -14 -8 -22 17 -31 31 -12 12 15 14 15 29 1 9 -9 16 -25 16 -36
0 -10 5 -19 11 -19 10 0 39 -24 39 -33 0 -3 -11 -8 -25 -11 -14 -4 -25 -13
-25 -21 0 -8 -4 -15 -9 -15 -5 0 -7 -9 -4 -20 6 -22 -22 -29 -30 -7 -7 19 -16
4 -20 -33 -4 -31 -27 -57 -27 -31 0 6 -5 11 -11 11 -7 0 -10 -15 -7 -40 2 -22
0 -40 -5 -40 -18 0 -36 -28 -30 -49 3 -13 -1 -29 -12 -41 -14 -16 -15 -23 -6
-34 7 -8 10 -19 8 -24 -3 -4 -2 -14 3 -22 7 -11 11 -11 24 -1 9 8 16 9 16 3 0
-6 -5 -12 -10 -14 -6 -2 -12 -14 -13 -28 -1 -14 -9 -34 -19 -44 -10 -11 -18
-25 -18 -32 0 -6 -6 -17 -14 -23 -21 -17 -30 -67 -18 -99 5 -15 15 -46 22 -69
7 -23 19 -44 26 -47 16 -6 19 -36 4 -36 -19 0 -12 -21 56 -165 14 -31 47 -136
66 -211 6 -23 8 -57 4 -77 -6 -34 -8 -35 -40 -30 -42 7 -122 -19 -173 -56 -38
-27 -100 -61 -113 -61 -4 0 -40 25 -81 55 -41 30 -83 55 -95 55 -64 0 -139
-65 -162 -140 -34 -111 -63 -264 -57 -299 9 -57 -2 -61 -161 -63 -184 -2 -222
-15 -324 -113 -76 -73 -124 -105 -158 -105 -10 0 -23 -5 -28 -10 -17 -17 -166
-39 -187 -29 -9 6 -46 12 -81 16 -69 6 -66 7 -239 -84 -49 -26 -137 -30 -177
-10 -44 23 -68 25 -132 12 -65 -13 -98 -40 -154 -125 -48 -73 -68 -88 -165
-124 -53 -20 -102 -36 -108 -36 -8 0 -11 -257 -11 -940 l0 -940 3775 0 3775 0
0 793 c-1 853 2 819 -53 832 -15 4 -27 11 -27 15 0 5 -10 12 -22 16 -13 4 -25
10 -28 14 -15 21 -121 98 -158 115 -41 18 -102 87 -102 114 0 6 -9 11 -20 11
-11 0 -20 6 -20 13 0 18 -108 117 -140 128 -17 6 -36 6 -54 -1 -15 -5 -47 -10
-71 -10 -61 0 -98 -16 -92 -38 8 -31 -46 -20 -135 29 -10 5 -29 9 -43 9 -14 0
-25 4 -25 8 0 9 -59 32 -84 32 -24 0 -58 19 -52 29 3 5 23 4 44 -2 22 -6 51
-7 68 -2 17 5 23 10 14 12 -9 2 -24 20 -35 39 -27 51 -129 124 -172 124 -8 0
-24 6 -36 12 -12 7 -38 14 -57 15 -185 13 -206 35 -45 46 43 3 49 7 47 23 -12
63 -87 154 -129 154 -12 0 -28 6 -35 13 -17 17 -62 31 -113 34 -76 4 -135 15
-135 24 0 5 13 9 29 9 31 0 45 18 30 41 -6 10 -31 14 -86 15 -48 1 -79 6 -81
13 -2 6 6 11 17 11 26 0 28 28 5 76 -19 39 -68 78 -88 71 -7 -3 -25 1 -39 8
-16 8 -49 12 -89 9 l-63 -3 -25 38 c-40 62 -165 167 -245 206 -42 21 -110 43
-160 53 -63 12 -93 23 -109 39 -11 12 -27 23 -33 23 -7 0 -13 5 -13 11 0 20
21 49 35 49 8 0 15 6 15 14 0 7 7 19 16 27 8 7 33 49 55 93 30 62 39 92 39
132 0 49 16 84 40 84 4 0 7 6 7 13 -1 6 3 29 7 50 7 29 5 42 -8 56 -9 10 -16
22 -16 29 0 12 -68 37 -77 28 -4 -3 1 -14 10 -24 19 -21 13 -32 -15 -32 -17 0
-22 14 -19 52 2 11 -7 20 -23 24 -14 3 -26 10 -26 15 0 5 7 6 15 3 11 -5 15 1
15 20 0 28 -28 68 -42 60 -5 -3 -7 -2 -6 3 1 4 -1 34 -5 66 -8 65 -3 84 19 66
11 -9 14 -7 14 9 0 12 -9 26 -19 32 -28 15 -36 48 -16 69 15 17 14 20 -15 44
-21 18 -30 35 -30 55 0 16 -6 35 -14 41 -8 7 -17 28 -21 48 -3 20 -13 42 -21
50 -8 8 -14 20 -14 26 0 8 3 7 9 -2 6 -9 11 -10 15 -3 4 6 13 9 21 6 26 -10
15 77 -14 104 -18 18 -22 31 -18 55 5 34 -35 117 -56 117 -7 0 -4 7 7 15 13
10 17 21 12 39 -5 19 0 31 18 50 22 21 24 29 16 56 -5 18 -7 30 -3 27 3 -4 12
1 19 11 8 11 25 16 54 16 32 -1 40 2 39 15 -1 9 -1 18 0 21 1 3 4 39 7 80 4
82 -3 106 -50 155 -35 38 -52 70 -59 117 -4 24 -1 38 6 41 9 3 9 7 1 18 -15
19 -14 49 3 49 7 0 13 2 13 5 0 15 -55 108 -67 112 -7 3 -13 11 -13 18 0 7 -7
18 -15 25 -8 7 -19 29 -25 50 -12 43 -98 130 -129 130 -31 0 -81 33 -87 57 -6
21 -11 23 -70 20 -65 -2 -99 12 -78 33 11 11 133 22 223 20 l53 -1 -28 26
c-22 20 -34 24 -56 19 -19 -4 -38 0 -54 11 -15 9 -34 15 -44 12 -22 -6 -55 26
-45 42 3 6 18 11 33 12 20 0 22 2 10 7 -29 12 -75 82 -53 82 11 0 125 -57 175
-88 99 -62 195 -127 198 -134 5 -11 22 -10 22 0 0 19 -97 103 -147 129 -31 15
-85 59 -126 100 -40 40 -79 73 -88 73 -10 0 -19 12 -23 31 -9 46 -8 51 12 47
24 -4 42 10 36 27 -4 9 6 17 32 24 34 9 40 8 60 -14 13 -14 29 -25 37 -25 16
0 87 -74 87 -90 0 -6 11 -23 25 -38 30 -31 47 -84 31 -94 -14 -9 12 -56 39
-70 19 -10 29 -20 73 -73 33 -39 56 -80 54 -96 -3 -16 28 -36 63 -41 12 -2 21
-12 23 -26 4 -27 18 -28 34 -3 9 15 15 17 29 8 25 -16 35 -2 19 27 -11 21 -10
31 4 66 17 42 21 82 9 78 -5 -2 -9 2 -10 7 -2 6 2 10 9 10 15 0 22 22 9 30 -6
3 -11 26 -11 49 0 24 -7 59 -14 78 -8 19 -12 44 -9 56 3 12 -1 28 -10 36 -9
10 -13 30 -11 58 2 24 -2 61 -8 83 -7 22 -11 59 -9 83 3 42 2 43 -23 36 -22
-5 -26 -3 -26 16 0 12 9 33 20 47 11 14 20 36 20 49 0 13 -9 28 -20 34 -16 9
-20 21 -20 63 1 29 7 63 15 77 8 14 14 48 13 75 0 47 -1 48 -7 15 -4 -19 -13
-45 -19 -57 -12 -22 -13 -22 -48 17 -29 32 -35 46 -31 67 14 72 17 67 -55 78
-71 11 -97 30 -98 72 0 23 -38 41 -59 28 -6 -3 -21 3 -33 15 -12 11 -28 18
-36 15 -7 -3 -18 -5 -23 -5 -9 0 -4 -20 14 -58 13 -28 -6 -46 -34 -31 -19 10
-20 13 -40 99 -21 89 -54 125 -77 83 -9 -15 -10 -14 -16 4 -4 11 -16 28 -26
38 -28 26 -44 8 -33 -35 7 -27 15 -34 38 -37 32 -5 45 -18 45 -45 0 -24 -21
-23 -53 2 -14 11 -33 20 -42 20 -16 0 -17 7 -11 54 8 67 -6 75 -49 29 l-32
-34 -52 43 c-44 36 -50 44 -37 54 9 6 13 14 9 17 -3 4 2 9 11 13 24 9 20 19
-19 37 -40 19 -71 22 -80 7 -10 -17 -33 -11 -40 10 -5 15 -15 20 -41 20 -19 0
-34 5 -34 10 0 6 -5 10 -11 10 -5 0 -35 12 -65 27 -42 20 -57 24 -66 15 -17
-17 -45 -15 -52 3 -4 11 -21 15 -61 15 -51 0 -61 4 -104 40 -51 43 -82 48
-165 29z m194 -108 c0 -5 -7 -14 -15 -21 -13 -10 -15 -9 -15 9 0 12 6 21 15
21 8 0 15 -4 15 -9z m360 -76 c13 -16 6 -35 -15 -35 -15 0 -24 19 -17 38 6 16
17 15 32 -3z m-640 -1914 c0 -15 6 -19 28 -18 23 2 27 -2 25 -20 -2 -17 2 -23
17 -23 26 0 35 -19 17 -37 -21 -22 -44 -10 -64 32 -9 19 -23 35 -30 35 -7 0
-13 11 -13 25 0 14 5 25 10 25 6 0 10 -9 10 -19z m248 -83 c2 -12 -2 -15 -16
-11 -14 3 -21 -2 -25 -17 -6 -22 -6 -22 -41 6 -41 33 -35 40 31 39 36 0 48 -4
51 -17z m1029 -180 c28 -26 31 -58 4 -58 -30 0 -91 29 -91 43 0 39 52 48 87
15z m53 -203 c0 -8 -9 -15 -20 -15 -20 0 -26 11 -13 23 12 13 33 7 33 -8z
m-720 -393 c28 -25 57 -63 69 -91 14 -33 41 -66 86 -105 59 -53 65 -61 65 -97
0 -35 -2 -39 -26 -39 -38 0 -167 31 -184 45 -19 15 -69 12 -79 -4 -5 -7 -30
-13 -57 -14 -42 -2 -49 1 -52 18 -3 24 66 105 90 105 22 0 17 66 -6 83 -14 10
-42 120 -46 175 0 2 4 1 8 -2 4 -2 14 -1 21 3 13 8 27 -1 111 -77z m-1483 26
c-3 -8 -6 -5 -6 6 -1 11 2 17 5 13 3 -3 4 -12 1 -19z m13 -79 c0 -4 -7 -6 -15
-3 -8 4 -15 10 -15 15 0 4 7 6 15 3 8 -4 15 -10 15 -15z m2315 -19 c4 -6 -5
-10 -19 -10 -14 0 -26 5 -26 10 0 6 9 10 19 10 11 0 23 -4 26 -10z m-985 -60
c0 -5 -4 -10 -10 -10 -5 0 -10 5 -10 10 0 6 5 10 10 10 6 0 10 -4 10 -10z
m-210 -55 c18 -9 27 -21 24 -29 -15 -40 -74 -23 -67 19 6 29 6 29 43 10z
m-450 -50 c7 -9 14 -37 14 -63 1 -26 5 -52 8 -58 8 -12 -62 -74 -82 -74 -7 0
-9 -8 -6 -20 3 -11 9 -29 12 -40 4 -15 1 -20 -14 -20 -24 0 -74 -38 -66 -51 5
-9 -24 -6 -63 7 -9 2 -13 -8 -13 -29 -1 -30 -29 -97 -30 -70 0 8 -11 11 -29 9
-22 -2 -28 0 -24 11 3 9 -2 16 -15 20 -12 3 -22 15 -24 27 -2 14 -11 22 -28
24 -14 2 -33 11 -43 20 -9 8 -29 17 -44 18 -14 2 -30 7 -35 12 -16 16 4 70 43
112 21 23 43 49 48 58 12 21 128 43 152 28 12 -7 22 -5 34 7 22 22 32 21 47
-3 16 -25 40 -27 31 -2 -4 9 -11 20 -16 23 -17 12 3 29 33 29 19 0 33 7 40 20
13 24 52 26 70 5z m-424 -362 c-8 -8 -36 5 -36 17 0 7 6 7 21 0 11 -7 18 -14
15 -17z m47 -40 c-7 -2 -19 -2 -25 0 -7 3 -2 5 12 5 14 0 19 -2 13 -5z m2268
-146 c-13 -13 -26 -3 -16 12 3 6 11 8 17 5 6 -4 6 -10 -1 -17z m-250 -823 c-8
-35 -12 -109 -10 -203 2 -80 0 -152 -4 -158 -5 -7 -18 -13 -31 -13 -19 0 -22
5 -20 35 2 19 -1 35 -6 35 -6 0 -10 15 -10 33 0 27 -6 36 -26 46 -23 10 -25
16 -20 44 3 18 9 49 12 69 4 22 19 49 35 65 16 15 29 33 29 39 0 7 6 22 13 35
24 47 29 51 40 40 7 -7 7 -27 -2 -67z m2409 -1202 c0 -15 -2 -15 -10 -2 -13
20 -13 33 0 25 6 -3 10 -14 10 -23z m-990 -1019 c0 -7 -4 -13 -10 -13 -5 0
-10 12 -10 28 0 21 2 24 10 12 5 -8 10 -21 10 -27z m-3657 -240 c2 -5 -16 -71
-42 -148 -46 -140 -46 -140 -78 -143 -39 -4 -43 14 -14 62 20 32 51 118 71
194 9 35 15 42 35 42 13 0 26 -3 28 -7z"/>
<path d="M3825 4250 c3 -5 8 -10 11 -10 2 0 4 5 4 10 0 6 -5 10 -11 10 -5 0
-7 -4 -4 -10z"/>
<path d="M4600 6210 c0 -5 5 -10 10 -10 6 0 10 5 10 10 0 6 -4 10 -10 10 -5 0
-10 -4 -10 -10z"/>
<path d="M5081 5328 c0 -13 4 -32 8 -43 7 -18 8 -17 14 7 8 29 0 58 -14 58 -5
0 -9 -10 -8 -22z"/>
<path d="M5129 5234 c-35 -76 -33 -111 7 -203 14 -30 31 -80 39 -111 17 -65
20 -226 5 -235 -15 -9 -12 -99 4 -121 26 -34 34 -4 39 146 3 87 11 173 22 215
21 87 16 153 -20 260 -47 140 -54 143 -96 49z"/>
<path d="M2400 4426 c0 -17 25 -27 46 -19 14 5 12 8 -7 19 -31 17 -39 17 -39
0z"/>
<path d="M5178 4414 c-3 -5 -4 -29 -2 -54 2 -25 4 -62 5 -82 1 -21 5 -38 9
-38 17 0 31 67 22 107 -11 47 -27 79 -34 67z"/>
<path d="M2392 4285 c-11 -12 -10 -15 3 -15 8 0 15 7 15 15 0 18 -2 18 -18 0z"/>
<path d="M2432 4121 c4 -13 18 -16 19 -4 0 4 -5 9 -11 12 -7 2 -11 -2 -8 -8z"/>
<path d="M4971 3994 c0 -11 3 -14 6 -6 3 7 2 16 -1 19 -3 4 -6 -2 -5 -13z"/>
</g>
</svg>
